<svg width="30" height="26" viewBox="0 0 30 26" fill="none" xmlns="http://www.w3.org/2000/svg">
<g id="fluent:person-48-filled">
<rect width="29.8204" height="26" rx="6" fill="#EF8C3A"/>
<g id="Group">
<path id="Vector" d="M6.29071 7.10938V6.5C6.10535 6.5 5.92758 6.5642 5.7965 6.67848C5.66543 6.79276 5.5918 6.94776 5.5918 7.10938H6.29071ZM23.0647 7.10938H23.7636C23.7636 6.94776 23.69 6.79276 23.5589 6.67848C23.4278 6.5642 23.2501 6.5 23.0647 6.5V7.10938ZM6.29071 7.71875H23.0647V6.5H6.29071V7.71875ZM22.3658 7.10938V16.8594H23.7636V7.10938H22.3658ZM21.2009 17.875H8.15449V19.0938H21.2009V17.875ZM6.98963 16.8594V7.10938H5.5918V16.8594H6.98963ZM8.15449 17.875C7.51149 17.875 6.98963 17.42 6.98963 16.8594H5.5918C5.5918 17.452 5.86179 18.0203 6.34239 18.4393C6.82299 18.8583 7.47482 19.0938 8.15449 19.0938V17.875ZM22.3658 16.8594C22.3658 17.42 21.8439 17.875 21.2009 17.875V19.0938C21.8806 19.0938 22.5324 18.8583 23.013 18.4393C23.4936 18.0203 23.7636 17.452 23.7636 16.8594H22.3658Z" fill="#FFF8F0"/>
<path id="Vector_2" d="M6.29102 7.10938L14.678 14.4219L23.065 7.10938" stroke="#FFF8F0" stroke-linecap="round" stroke-linejoin="round"/>
</g>
</g>
</svg>
